<?xml version="1.0" standalone="no"?>
<!DOCTYPE svg PUBLIC "-//W3C//DTD SVG 20010904//EN"
 "http://www.w3.org/TR/2001/REC-SVG-20010904/DTD/svg10.dtd">
<svg version="1.0" xmlns="http://www.w3.org/2000/svg"
 width="525.000000pt" height="525.000000pt" viewBox="0 0 525.000000 525.000000"
 preserveAspectRatio="xMidYMid meet">

<g transform="translate(0.000000,525.000000) scale(0.100000,-0.100000)"
fill="#000000" stroke="none">
<path d="M0 4597 l0 -653 50 -94 c27 -52 50 -98 50 -102 0 -8 13 -36 32 -68 5
-8 11 -23 14 -32 4 -10 10 -18 14 -18 4 0 17 -19 28 -42 11 -24 36 -70 56
-103 20 -33 50 -87 67 -120 17 -33 41 -78 55 -100 13 -22 30 -51 36 -65 7 -14
22 -38 34 -55 27 -37 97 -177 115 -227 7 -21 16 -38 20 -38 12 0 31 -68 23
-81 -4 -7 -2 -10 6 -7 8 2 26 -21 45 -57 18 -33 45 -83 61 -111 28 -50 28 -51
8 -71 -17 -18 -34 -21 -76 -14 -5 0 -8 10 -8 22 0 17 -4 20 -29 14 -28 -6 -28
-6 -25 37 8 93 7 120 -3 126 -5 4 -12 15 -16 25 -4 10 -11 15 -17 12 -5 -3
-10 1 -10 10 0 20 -27 48 -39 41 -5 -3 -11 4 -14 15 -3 12 -10 18 -15 15 -15
-9 -43 4 -36 16 4 6 -3 5 -15 -1 -26 -14 -41 -7 -41 20 0 10 -4 19 -10 19 -5
0 -10 7 -10 15 0 8 3 14 7 14 31 -5 33 3 10 27 -15 15 -25 30 -22 34 3 4 -2
10 -10 14 -18 7 -20 36 -3 36 7 0 2 7 -10 16 -12 8 -20 20 -16 25 3 5 1 15 -4
22 -5 7 -12 24 -16 40 -4 16 -13 27 -24 27 -15 1 -15 2 3 16 18 14 18 16 4 24
-9 6 -20 22 -23 36 -9 35 -30 56 -44 42 -7 -7 -18 -5 -34 6 -14 9 -27 13 -31
10 -3 -3 -3 3 -1 13 6 21 -9 37 -43 47 -16 5 -23 2 -26 -11 -3 -10 -5 16 -5
57 0 83 -16 128 -44 122 -17 -3 -18 -70 -18 -1233 l0 -1229 24 0 c14 0 28 -4
31 -10 3 -5 19 -10 36 -10 16 0 29 -4 29 -10 0 -5 6 -10 13 -10 23 0 38 -17
52 -56 8 -24 10 -43 4 -50 -5 -6 -6 -20 -3 -30 6 -17 5 -17 -13 2 -12 11 -28
35 -37 52 -20 39 -46 42 -46 6 0 -24 -3 -26 -28 -21 -15 3 -35 9 -44 12 -16 6
-18 0 -18 -64 0 -41 4 -71 10 -71 6 0 10 11 10 24 0 24 8 26 44 11 20 -9 37
10 29 32 -4 9 5 13 31 13 25 0 36 -4 36 -15 0 -8 5 -15 11 -15 5 0 7 -4 4 -10
-3 -5 -2 -10 3 -10 17 0 106 42 121 57 13 13 13 16 -2 25 -20 11 -23 29 -5 25
7 -1 12 4 10 11 -1 8 3 12 10 9 7 -2 12 -10 11 -16 -2 -6 4 -11 12 -11 21 0
19 11 -10 43 -20 20 -35 27 -65 27 -46 0 -56 18 -22 44 19 15 28 17 42 8 14
-9 19 -6 29 15 10 23 15 24 49 18 48 -10 76 -8 80 5 2 5 14 10 27 10 13 0 54
7 90 15 43 10 79 13 103 8 20 -4 42 -8 47 -8 6 0 16 -6 23 -13 7 -6 21 -12 30
-13 9 0 38 -1 65 -2 26 -1 47 2 47 7 0 5 8 2 18 -7 10 -9 39 -16 72 -18 30 -1
60 -5 65 -8 6 -3 56 -6 112 -6 l102 0 15 40 c27 76 48 159 52 215 2 30 6 78 8
105 3 28 7 86 10 130 4 44 13 100 20 125 43 137 206 353 206 274 0 -10 -15
-35 -33 -58 -41 -50 -123 -193 -143 -249 -8 -24 -15 -81 -15 -141 0 -58 -11
-160 -25 -241 -29 -171 -30 -192 -5 -200 26 -8 35 -35 18 -53 -12 -11 -19 -12
-36 -2 -20 10 -24 7 -52 -55 -22 -49 -34 -65 -45 -61 -9 3 -26 -5 -40 -19 -14
-14 -28 -23 -32 -21 -17 10 -82 15 -87 6 -3 -6 5 -10 19 -10 26 0 66 -31 66
-51 0 -7 11 -8 29 -4 24 5 30 2 36 -15 4 -11 2 -26 -3 -33 -5 -7 -13 -32 -16
-57 -6 -38 -5 -42 6 -29 22 26 42 27 71 3 16 -13 37 -24 47 -24 10 0 22 -5 25
-10 4 -6 -8 -10 -29 -10 -27 0 -42 -7 -63 -30 -14 -17 -32 -30 -38 -30 -7 0
-23 -27 -35 -60 -13 -34 -25 -59 -29 -57 -3 1 -37 17 -75 35 -54 25 -72 30
-83 21 -11 -10 -10 -16 8 -35 12 -13 24 -23 28 -22 23 2 41 -4 36 -12 -3 -5
-1 -10 4 -10 17 0 48 -35 43 -48 -2 -7 2 -12 8 -12 7 0 10 -7 6 -15 -8 -23 5
-18 39 13 42 40 94 60 106 41 11 -19 -5 -33 -66 -57 -45 -18 -50 -23 -48 -48
1 -16 -3 -31 -9 -35 -18 -11 10 -39 38 -39 13 0 24 -4 24 -9 0 -5 -9 -7 -21
-4 -24 7 -45 -17 -26 -29 9 -5 7 -11 -7 -21 -15 -11 -16 -16 -5 -22 19 -12 72
-7 81 8 18 30 87 -91 79 -140 -1 -10 329 -13 1624 -13 1404 0 1625 2 1625 14
0 8 -9 18 -20 21 -11 3 -21 15 -22 26 -5 58 -4 80 4 85 4 3 8 14 8 25 0 16 4
18 18 10 30 -17 63 -52 56 -62 -3 -5 0 -17 7 -26 8 -8 15 -31 16 -50 1 -20 5
-38 8 -41 8 -9 25 20 18 31 -3 5 4 4 16 -2 11 -7 21 -16 21 -21 0 -6 30 -10
68 -9 56 0 63 2 42 11 l-25 10 27 10 c20 7 37 4 73 -13 40 -19 53 -21 90 -12
24 5 50 6 57 2 7 -5 24 -9 37 -9 l24 0 -22 24 -23 24 23 4 c44 6 31 26 -20 30
-45 3 -50 1 -48 -17 3 -25 -25 -31 -72 -15 -33 10 -63 17 -84 19 -5 1 -5 6 -1
12 4 7 27 9 70 4 55 -6 65 -4 84 15 11 11 25 18 31 14 12 -7 40 27 32 39 -3 5
-20 6 -38 3 -19 -4 -36 -2 -40 4 -3 5 -34 24 -68 42 -51 26 -74 32 -132 33
-76 1 -97 8 -88 30 6 18 34 19 52 2 11 -9 13 -9 7 1 -8 13 0 15 52 14 21 -1
32 3 32 12 0 20 -22 33 -50 29 -46 -5 -125 -4 -163 3 -37 6 -38 6 -25 -15 7
-11 18 -21 24 -21 15 0 46 -35 37 -43 -10 -11 -61 -8 -68 3 -12 19 -33 11 -28
-10 5 -18 3 -19 -25 -9 -17 6 -33 17 -36 25 -3 9 -11 12 -17 9 -6 -4 -8 -14
-4 -22 4 -13 3 -14 -9 -3 -14 11 -14 14 -1 27 19 19 20 14 -16 79 -18 31 -32
68 -31 83 0 16 -7 32 -18 39 -16 10 -19 7 -24 -24 -7 -37 -26 -47 -26 -13 0
17 -4 20 -24 15 -15 -4 -28 0 -36 9 -9 11 -23 14 -47 9 -25 -5 -38 -3 -44 7
-6 10 -15 11 -36 3 -20 -7 -37 -28 -63 -78 -19 -38 -45 -75 -56 -83 -20 -13
-22 -11 -45 44 -13 32 -29 69 -36 82 -6 14 -10 28 -7 33 3 4 2 8 -3 8 -4 0
-15 15 -22 32 -8 18 -24 45 -34 60 -18 24 -26 27 -66 25 -26 -2 -52 -6 -59
-11 -6 -4 -16 -5 -21 -2 -5 3 -22 -1 -37 -9 -16 -8 -33 -15 -38 -15 -5 0 -23
-15 -40 -34 -32 -35 -76 -56 -76 -37 0 6 -9 20 -20 31 -23 23 -27 73 -7 91 7
7 11 25 9 41 -3 17 2 36 12 46 9 11 14 32 13 54 -2 20 0 35 4 33 4 -3 11 13
17 34 9 36 8 39 -11 36 -17 -4 -19 0 -14 33 4 22 3 31 -2 23 -7 -11 -11 -10
-20 5 -10 16 -11 12 -8 -23 4 -32 0 -49 -13 -66 -10 -13 -22 -36 -25 -50 -4
-15 -11 -27 -15 -27 -15 0 -37 46 -44 92 -4 26 -11 50 -15 52 -9 6 -6 224 4
281 4 22 7 47 7 55 -1 8 -1 75 -1 148 -1 133 5 186 18 177 4 -2 6 17 5 43 -1
26 -5 109 -8 185 -3 76 -8 143 -11 147 -7 11 -14 67 -22 174 -5 66 -11 89 -41
138 -19 32 -33 61 -30 63 6 6 43 -23 89 -70 39 -40 119 -180 119 -207 0 -8 7
-29 15 -45 22 -44 97 -323 97 -357 0 -16 8 -51 19 -78 10 -27 19 -61 19 -76 1
-33 9 -47 86 -148 34 -43 64 -89 68 -101 4 -13 13 -23 21 -23 13 0 35 -23 83
-88 31 -41 50 -48 44 -16 -2 13 -8 24 -13 24 -5 0 -9 6 -9 14 0 7 -11 21 -25
30 -22 14 -23 19 -13 41 6 14 13 23 16 21 2 -3 11 2 19 10 12 12 18 12 31 2
13 -11 15 -11 8 2 -4 8 2 4 13 -9 37 -42 93 -81 116 -81 24 0 44 32 24 39 -26
8 -81 79 -97 124 -14 41 -20 47 -38 43 -25 -7 -49 17 -40 39 8 22 -8 54 -47
99 -19 21 -41 50 -48 65 -8 14 -31 51 -51 82 -21 31 -38 61 -38 66 0 5 -11 25
-25 44 -15 19 -36 53 -47 77 -12 23 -25 42 -29 42 -3 0 -9 9 -12 20 -4 16 4
13 36 -17 60 -54 140 -138 198 -209 28 -34 60 -67 72 -73 12 -6 51 -50 87 -96
64 -83 84 -97 108 -73 9 9 12 9 12 0 0 -6 7 -9 15 -6 8 4 12 10 9 15 -3 5 5 9
18 9 18 0 20 2 8 10 -12 8 -11 10 7 10 12 0 27 8 32 17 10 17 10 16 11 -2 1
-19 1 -19 14 -2 10 13 15 15 18 5 4 -11 8 -11 20 0 14 11 17 8 26 -16 15 -43
73 -85 106 -76 14 3 26 10 26 15 0 5 6 9 14 9 8 0 16 5 18 11 2 5 12 11 23 13
12 2 19 10 17 20 -2 13 4 15 45 9 26 -3 54 -10 61 -16 8 -6 12 -5 12 4 0 11 2
11 9 0 8 -12 15 -12 33 -4 26 12 52 -3 77 -42 11 -18 12 -18 7 -1 -5 14 -2 17
9 12 9 -3 13 -2 10 4 -3 6 -1 10 5 10 6 0 8 5 4 12 -4 6 5 3 19 -8 15 -10 25
-24 23 -30 -3 -7 16 -1 41 13 25 13 48 22 50 19 3 -2 17 8 31 23 15 15 24 23
20 17 -10 -13 39 -57 56 -50 19 7 30 -14 17 -30 -9 -11 -6 -12 14 -8 16 3 25
0 25 -9 0 -8 6 -5 15 7 8 11 15 14 15 7 0 -17 20 -17 20 0 0 8 9 22 19 31 18
17 19 17 24 -1 3 -10 5 305 6 699 1 447 -3 719 -9 723 -5 3 -7 12 -3 20 3 8 1
15 -5 15 -18 0 -30 53 -19 85 7 21 7 30 -1 33 -7 2 -12 24 -12 50 0 58 -18
125 -31 117 -5 -4 -9 7 -9 24 0 16 -4 33 -10 36 -5 3 -10 20 -10 37 0 26 -2
29 -15 18 -12 -10 -15 -10 -15 1 0 8 -11 22 -24 32 -16 12 -22 25 -19 38 4 13
1 19 -8 17 -7 -2 -15 6 -17 17 -2 11 -13 27 -24 37 -29 25 -22 100 10 104 12
2 22 0 22 -6 0 -5 7 -6 17 -3 10 4 14 2 10 -4 -4 -6 5 -14 20 -18 17 -4 29 -2
31 4 6 17 22 13 22 -6 0 -9 3 -14 6 -11 3 4 18 2 34 -2 20 -6 30 -5 34 3 3 8
5 8 5 -1 1 -7 6 -10 11 -7 6 4 10 99 10 253 0 235 -1 248 -20 265 -13 11 -20
13 -20 4 0 -9 -2 -9 -9 1 -4 7 -12 12 -17 11 -29 -5 -53 2 -48 15 5 14 -36 66
-52 66 -18 1 -64 50 -64 68 0 11 -7 22 -15 26 -8 3 -15 14 -15 25 0 11 -4 21
-10 23 -6 2 -7 20 -2 48 6 34 12 45 27 47 11 1 31 3 43 5 14 1 30 14 38 30 8
15 20 28 27 28 6 0 20 14 29 30 9 17 24 30 32 30 8 0 16 5 18 11 2 5 10 11 18
12 31 5 40 19 40 67 0 43 -3 48 -25 54 -14 4 -25 10 -25 14 0 4 -25 7 -55 6
-44 0 -55 3 -55 15 -1 14 -3 14 -14 -1 -7 -10 -20 -18 -29 -18 -9 0 -18 -9
-22 -19 -3 -12 -15 -19 -28 -19 -29 0 -67 19 -67 32 0 19 -69 76 -76 64 -5 -8
-10 -5 -14 8 -4 10 -2 23 4 27 8 6 7 10 -2 14 -6 2 -10 9 -6 14 3 5 0 9 -5 9
-6 0 -11 7 -11 16 0 8 4 13 8 10 4 -2 6 11 4 30 -3 21 0 34 8 34 12 0 9 38 -9
82 -8 21 -7 31 4 42 19 19 19 26 0 26 -8 0 -15 7 -15 16 0 8 5 12 11 8 8 -4 9
0 4 15 -4 13 -2 21 5 21 14 0 11 20 -17 120 -24 84 -28 90 -64 90 -26 0 -29
-3 -24 -21 10 -30 -14 -99 -31 -92 -8 3 -14 -1 -14 -11 0 -9 4 -16 8 -16 11 0
35 -51 27 -58 -2 -3 0 -11 7 -19 11 -14 15 -33 21 -98 1 -19 10 -33 25 -41 37
-18 46 -30 28 -37 -9 -4 -16 -2 -16 3 0 15 -30 12 -31 -2 -4 -90 -3 -161 3
-164 5 -3 8 -14 8 -25 0 -12 4 -17 11 -13 8 5 9 2 2 -11 -7 -12 -7 -30 0 -54
16 -56 11 -233 -8 -247 -8 -6 -12 -13 -9 -16 3 -3 -6 -14 -19 -24 -12 -11 -26
-27 -30 -36 -3 -10 -12 -18 -19 -18 -9 0 -9 3 2 10 19 12 7 23 -27 26 -15 2
-29 8 -31 14 -5 13 -32 13 -32 1 0 -6 -12 -16 -27 -23 -14 -7 -31 -22 -37 -33
-6 -10 -17 -26 -24 -34 -8 -8 -11 -24 -8 -37 5 -18 0 -26 -21 -36 -16 -7 -60
-60 -104 -123 -85 -121 -157 -189 -263 -245 -36 -19 -68 -42 -71 -50 -4 -13 1
-72 22 -297 5 -55 -13 -126 -48 -193 -11 -19 -19 -40 -19 -46 0 -6 -10 -23
-21 -38 l-21 -27 26 -28 c14 -15 26 -32 26 -39 0 -6 9 -17 21 -24 29 -18 56
-66 64 -113 8 -47 52 -163 69 -185 23 -27 85 -156 107 -221 12 -35 37 -95 56
-132 24 -49 37 -91 43 -143 4 -41 12 -80 17 -87 24 -33 34 -90 27 -157 -3 -38
-10 -70 -15 -70 -4 0 -11 -16 -15 -36 -4 -24 -22 -51 -55 -84 -51 -51 -60 -66
-33 -56 8 3 12 2 9 -4 -3 -6 -15 -10 -25 -10 -20 0 -25 -34 -8 -56 14 -19 -24
-11 -44 9 -10 9 -18 23 -18 30 0 9 2 9 8 0 6 -9 11 -7 19 6 10 16 9 18 -5 14
-10 -2 -28 5 -41 16 -25 22 -24 23 30 35 15 3 37 15 50 26 l24 19 -55 1 c-36
0 -63 6 -77 18 -31 24 -53 90 -41 124 9 26 11 27 33 12 12 -8 25 -28 29 -44 7
-40 35 -80 53 -80 12 0 14 10 11 40 -3 35 -1 39 15 34 13 -4 17 -2 13 5 -5 7
1 11 14 11 12 0 19 4 16 9 -3 4 1 17 9 27 8 11 14 14 15 7 0 -22 20 -14 20 7
0 11 -7 20 -15 20 -18 0 -19 23 -4 51 9 17 5 28 -18 62 -15 23 -36 49 -45 59
-18 18 -16 39 6 67 8 11 8 13 -3 9 -21 -6 -71 54 -71 86 0 32 -37 103 -59 115
-9 5 -23 25 -31 45 -7 19 -17 33 -21 30 -5 -3 -11 6 -15 20 -7 30 -39 60 -53
51 -6 -3 -11 -2 -11 3 0 12 -71 109 -101 139 -12 12 -43 29 -68 39 -25 9 -55
25 -66 34 -11 10 -29 22 -40 28 -30 15 -142 42 -175 42 -15 0 -44 7 -63 15
-20 8 -50 15 -66 15 -16 0 -32 4 -36 9 -3 5 -19 12 -35 16 -17 4 -30 12 -30
18 0 8 -4 7 -9 -2 -15 -23 -44 -5 -35 21 5 13 8 33 9 45 0 13 6 21 15 20 8 0
52 24 96 55 92 62 113 67 302 66 72 0 118 -5 142 -15 72 -30 77 -29 110 37 35
70 37 80 10 80 -11 0 -20 -4 -20 -10 0 -5 -6 -10 -14 -10 -8 0 -16 -5 -18 -12
-2 -6 -21 -13 -42 -14 l-37 -3 23 24 c13 14 31 25 41 25 9 0 23 12 29 26 11
24 13 25 25 8 12 -17 13 -16 13 3 0 14 -11 27 -30 36 -27 14 -33 14 -67 -3
-21 -10 -54 -19 -73 -21 -19 -2 -46 -9 -60 -16 -14 -7 -33 -13 -42 -13 -10 0
-18 -4 -18 -9 0 -6 -12 -6 -31 -1 -23 7 -37 5 -53 -5 -11 -8 -31 -15 -43 -15
-13 0 -23 -5 -23 -12 0 -6 -3 -9 -6 -5 -3 3 -18 -5 -32 -18 -14 -13 -40 -32
-59 -42 -18 -9 -33 -24 -33 -31 0 -7 -4 -11 -9 -8 -5 4 -23 -8 -40 -25 -17
-17 -31 -27 -31 -23 0 4 -7 -1 -15 -12 -8 -10 -15 -15 -15 -11 0 5 -11 -5 -24
-20 -26 -31 -28 -51 -8 -75 6 -8 9 -23 6 -35 -3 -12 -1 -31 6 -43 9 -17 14
-19 26 -10 15 13 32 12 184 -18 246 -49 332 -97 392 -216 17 -34 49 -83 71
-109 34 -41 41 -58 45 -103 3 -34 1 -54 -6 -54 -6 0 -12 10 -14 22 -2 15 -29
41 -78 75 -41 29 -126 97 -188 150 -147 126 -159 134 -275 171 -100 33 -137
39 -137 23 0 -8 9 -13 101 -45 68 -24 137 -77 185 -142 35 -47 41 -61 32 -73
-26 -34 -39 -40 -67 -30 -14 6 -44 12 -66 14 -56 6 -138 25 -152 37 -7 6 -13
18 -13 28 0 9 -11 23 -25 30 -13 7 -22 17 -19 22 9 15 -24 75 -57 102 -35 30
-47 31 -110 12 -46 -14 -69 -8 -69 17 0 18 69 89 113 117 47 29 73 63 62 80
-3 6 1 10 9 10 9 0 16 4 16 10 0 6 -9 6 -26 0 -34 -13 -64 3 -64 35 0 13 -5
35 -11 48 -9 20 -8 30 7 52 15 23 15 28 3 36 -11 7 -11 9 3 9 9 0 20 5 24 12
4 6 3 8 -2 5 -27 -16 -40 17 -43 105 -1 16 -4 16 -48 2 -94 -31 -158 -40 -343
-54 -125 -8 -351 0 -420 16 -14 3 -38 8 -55 11 -50 7 -123 33 -135 48 -10 12
-18 10 -51 -12 -23 -15 -47 -23 -59 -20 -22 6 -37 -8 -20 -18 5 -3 7 -17 4
-31 -6 -22 -3 -24 31 -24 21 0 55 5 77 12 43 13 63 3 52 -25 -7 -18 -63 -36
-104 -34 -21 2 -25 -2 -25 -25 0 -32 -4 -33 -78 -9 -20 7 -46 10 -56 6 -14 -4
-21 0 -26 15 -5 17 -12 19 -48 14 -68 -9 -89 -14 -135 -35 -24 -11 -50 -18
-57 -15 -8 3 -18 -1 -25 -8 -6 -8 -37 -16 -69 -18 -42 -3 -71 -12 -100 -31
-22 -15 -47 -27 -55 -27 -9 0 -25 -10 -36 -22 -17 -19 -24 -20 -39 -11 -15 10
-20 9 -25 -2 -3 -8 -12 -15 -19 -15 -17 0 -24 -16 -72 -155 -21 -60 -53 -155
-72 -210 -47 -135 -44 -239 8 -337 9 -16 8 -19 -3 -16 -7 3 -24 31 -38 64 -22
51 -25 73 -24 169 0 114 1 117 67 285 14 36 31 81 37 100 7 19 21 54 32 77
l19 41 -30 100 c-32 108 -65 334 -56 379 18 78 50 118 75 88 9 -11 7 -24 -10
-62 -19 -44 -21 -59 -15 -171 6 -128 17 -208 30 -220 4 -4 10 -1 12 6 3 6 9
12 14 12 13 0 11 -38 -3 -42 -7 -3 -9 -11 -4 -24 6 -14 10 -16 14 -5 2 8 16
27 31 43 14 16 35 50 46 76 27 63 47 92 63 92 7 0 10 -4 7 -10 -3 -5 -1 -10 4
-10 6 0 11 5 11 10 0 6 11 15 23 21 19 9 39 5 99 -15 41 -14 81 -26 90 -26 17
0 128 99 113 101 -5 1 -20 0 -32 -1 -13 -1 -23 4 -23 12 0 10 -3 9 -10 -2 -7
-12 -12 -11 -27 7 -37 45 -53 67 -53 75 0 4 -6 8 -14 8 -8 0 -27 10 -43 23
-15 13 -53 31 -84 40 -31 9 -64 26 -74 37 -10 11 -24 20 -32 20 -7 0 -13 9
-13 20 0 11 -4 20 -10 20 -5 0 -10 -3 -10 -7 0 -18 -207 10 -298 39 -143 46
-234 101 -352 214 -85 81 -115 104 -175 138 -48 28 -105 74 -105 85 0 3 44 5
97 4 80 -2 101 -5 113 -20 22 -26 78 -45 87 -29 15 22 62 46 92 46 35 0 177
-32 239 -54 32 -12 48 -13 66 -4 19 8 31 7 57 -6 17 -9 47 -16 66 -16 19 0 41
-8 51 -18 21 -21 18 -44 -4 -35 -8 3 -14 0 -14 -6 0 -6 5 -10 11 -9 20 5 21
-19 2 -38 -16 -16 -16 -17 -1 -12 10 4 19 1 22 -8 3 -9 11 -12 17 -8 6 3 3 -6
-7 -22 -18 -28 -18 -29 0 -14 18 14 18 13 12 -18 -5 -21 -4 -32 3 -32 6 0 11
-13 11 -30 0 -16 5 -30 10 -30 6 0 10 -6 10 -12 1 -30 16 -39 46 -28 22 8 30
17 32 37 3 41 19 51 38 25 23 -33 72 -29 112 8 46 41 77 42 152 5 66 -33 91
-47 128 -73 27 -20 98 -55 239 -118 17 -8 36 -14 43 -14 6 0 32 -10 58 -21 28
-13 69 -22 103 -23 32 0 55 -4 53 -8 -5 -8 32 -13 69 -10 9 1 17 -3 17 -8 0
-6 5 -10 11 -10 8 0 8 4 -1 15 -19 22 -7 41 13 21 9 -10 17 -13 17 -7 0 7 10
9 23 6 12 -3 40 -7 62 -10 22 -3 54 -8 70 -10 17 -2 67 -7 112 -9 45 -3 94
-11 109 -16 15 -6 52 -8 83 -4 48 5 60 3 84 -16 15 -12 27 -28 27 -36 0 -8 -1
-14 -2 -14 -2 0 -25 7 -53 15 -78 24 -272 50 -345 47 -80 -3 -153 -1 -163 5
-5 3 -7 1 -3 -5 4 -7 -14 -13 -51 -17 -199 -22 -271 -58 -215 -107 46 -41 175
-58 442 -59 306 0 475 44 416 110 -16 17 -12 22 61 94 43 41 92 86 108 98 17
13 36 29 43 36 8 7 19 10 25 6 7 -4 8 0 4 11 -4 10 -7 19 -7 21 0 2 -9 1 -20
-2 -11 -3 -17 -10 -14 -15 4 -6 -4 -4 -17 2 -13 8 -24 9 -26 3 -2 -5 -27 -7
-56 -5 -28 2 -61 3 -71 3 -10 0 -28 7 -40 15 -25 17 -40 18 -30 2 5 -7 3 -8
-7 -2 -15 9 -129 13 -129 4 0 -8 -67 -14 -149 -15 -52 0 -76 4 -79 13 -3 10
-7 10 -17 2 -17 -15 -60 -9 -61 8 -3 23 -4 24 -19 12 -12 -10 -16 -9 -21 4 -8
21 -24 20 -24 -1 0 -13 -3 -14 -8 -6 -6 10 -15 10 -43 0 -18 -6 -37 -16 -40
-21 -4 -4 -10 -3 -14 4 -5 8 -12 7 -25 -5 -10 -9 -23 -14 -29 -11 -5 3 -11 1
-13 -5 -6 -17 -198 -19 -223 -3 -11 7 -31 15 -45 18 -58 10 -70 22 -48 44 10
10 10 15 -2 23 -13 8 -12 11 4 24 11 8 15 15 8 15 -6 0 -9 7 -6 15 4 8 2 15
-3 15 -5 0 -17 15 -28 33 -19 31 -21 36 -24 58 0 5 -6 7 -11 4 -6 -4 -1 10 10
29 17 31 18 36 4 36 -13 0 -14 3 -4 15 10 11 9 18 -4 30 -22 23 -20 35 7 35
20 1 20 2 4 11 -14 8 -15 14 -6 30 13 25 8 32 -15 23 -14 -5 -15 -9 -5 -15 8
-4 10 -12 5 -16 -4 -4 -16 2 -26 14 -9 12 -21 19 -26 15 -5 -4 -1 2 9 14 15
18 16 23 3 33 -11 9 -20 10 -35 1 -17 -9 -19 -15 -11 -30 8 -15 8 -20 -1 -20
-6 0 -9 -6 -6 -14 3 -8 0 -16 -6 -19 -20 -8 -62 -2 -61 8 1 6 -7 19 -19 30
-11 11 -16 13 -12 5 5 -8 4 -11 0 -7 -9 7 -13 23 -17 60 -4 36 -23 8 -26 -39
-2 -43 -4 -60 -10 -111 -3 -22 -22 -14 -34 15 -7 15 -13 28 -14 30 -1 2 -11
-1 -22 -7 -17 -9 -28 -5 -66 24 -26 19 -51 35 -56 35 -6 0 -10 4 -10 8 0 4
-13 16 -30 25 -16 10 -30 14 -30 8 0 -5 -8 -10 -17 -10 -230 -1 -328 1 -423
11 -129 14 -435 17 -582 6 -92 -7 -97 -6 -103 13 -12 38 15 51 120 57 94 5 96
5 91 27 -6 22 -4 23 34 18 30 -4 45 -1 60 12 17 16 25 16 84 4 54 -10 75 -10
121 1 30 7 63 13 73 13 9 0 22 4 28 9 6 4 31 8 55 7 97 -2 187 8 210 23 13 8
35 14 49 13 14 -1 30 2 37 7 7 6 19 6 30 0 10 -5 47 -13 83 -16 36 -4 86 -9
113 -12 37 -5 47 -3 47 9 0 8 15 24 33 36 17 11 27 21 20 21 -6 0 -20 14 -30
30 -10 17 -26 30 -37 30 -10 0 -32 14 -48 31 -24 24 -29 37 -24 59 6 31 -13
47 -33 27 -9 -9 -11 -8 -6 5 6 15 3 16 -24 8 -26 -7 -31 -6 -31 9 0 10 -12 23
-26 29 -14 7 -22 17 -19 22 3 6 2 10 -3 10 -5 0 -9 11 -9 24 -1 28 -28 71 -46
71 -6 0 -12 12 -13 28 -1 23 2 26 19 21 21 -7 19 -3 -23 44 -8 9 -15 24 -14
32 0 8 -4 25 -9 37 -8 18 -13 20 -35 12 -13 -5 -27 -7 -30 -4 -3 3 -1 5 4 5 5
0 15 4 23 9 12 8 12 12 2 25 -18 22 -30 20 -24 -3 5 -20 -22 -37 -32 -21 -4 6
-1 10 4 10 6 0 11 5 11 11 0 5 -4 7 -10 4 -5 -3 -10 -1 -10 4 0 6 7 11 15 11
8 0 15 5 15 10 0 6 -4 10 -10 10 -5 0 -10 6 -10 14 0 8 -9 18 -20 21 -11 4
-18 11 -15 16 8 11 3 11 -29 -1 -19 -7 -24 -6 -20 4 3 7 -2 18 -10 25 -8 7
-12 20 -9 29 6 15 5 15 -10 3 -18 -14 -22 -7 -18 27 1 6 -5 12 -13 12 -14 0
-29 28 -25 46 1 5 -1 17 -5 27 -8 16 -41 17 -487 17 l-479 0 0 -653z m474 513
c1 -25 -3 -35 -14 -35 -17 0 -21 26 -5 37 6 5 3 8 -7 8 -18 0 -23 11 -11 24
17 17 37 -1 37 -34z m-148 -24 c-3 -14 -2 -28 4 -31 7 -4 7 -12 0 -24 -7 -14
-5 -23 10 -36 21 -19 18 -37 -5 -28 -8 3 -15 14 -15 24 0 10 -4 19 -10 19 -9
0 -30 61 -30 88 0 6 12 12 26 12 23 0 25 -3 20 -24z m446 -9 c6 -9 8 -9 8 1 0
7 5 10 10 7 6 -4 8 -11 5 -16 -4 -5 0 -9 7 -9 11 0 11 -2 0 -9 -7 -4 -12 -14
-10 -21 2 -8 -10 -20 -26 -28 -26 -13 -30 -13 -38 2 -5 9 -15 16 -22 16 -16 0
-27 45 -14 58 13 13 71 13 80 -1z m-152 1 c0 -2 -9 -11 -19 -20 -18 -15 -20
-15 -35 1 -14 16 -13 17 19 19 19 2 35 1 35 0z m20 -22 c0 -2 -7 -7 -16 -10
-8 -3 -12 -2 -9 4 6 10 25 14 25 6z m4160 -86 c0 -5 -5 -10 -11 -10 -5 0 -7 5
-4 10 3 6 8 10 11 10 2 0 4 -4 4 -10z m-3613 -74 c-14 -11 -15 -15 -5 -19 9
-4 9 -6 1 -6 -15 -1 -26 16 -18 29 3 6 14 10 23 10 15 -1 15 -2 -1 -14z m-139
-168 c11 3 12 0 4 -14 -5 -11 -7 -26 -5 -34 4 -12 3 -13 -5 -1 -5 7 -15 10
-21 7 -6 -4 -19 1 -28 10 -13 13 -14 19 -5 22 7 2 10 8 6 13 -3 5 4 5 18 0 13
-4 29 -6 36 -3z m372 -178 c0 -5 -2 -10 -4 -10 -3 0 -8 5 -11 10 -3 6 -1 10 4
10 6 0 11 -4 11 -10z m-150 -531 c0 -5 -4 -9 -10 -9 -5 0 -10 7 -10 16 0 8 5
12 10 9 6 -3 10 -10 10 -16z m550 -39 c0 -5 -5 -10 -11 -10 -5 0 -7 5 -4 10 3
6 8 10 11 10 2 0 4 -4 4 -10z m3077 -279 c11 -1 14 -40 3 -42 -28 -7 -53 -4
-57 7 -8 22 4 43 24 39 10 -2 23 -4 30 -4z m-3115 -587 c3 -3 -14 -24 -38 -46
-51 -47 -99 -127 -108 -179 -12 -67 -65 -173 -89 -177 -23 -5 -19 16 25 106
l30 64 -21 19 c-11 10 -25 19 -32 19 -6 0 -9 7 -5 15 3 8 0 16 -7 16 -7 1 -16
2 -22 4 -5 1 -16 3 -22 3 -21 3 -15 20 21 60 34 37 75 54 216 91 46 12 46 12
52 5z m418 -50 c0 -24 -19 -54 -34 -54 -11 0 -12 7 -3 35 10 35 37 49 37 19z
m-65 -35 c10 -14 1 -21 -19 -13 -9 3 -13 10 -10 15 7 12 21 11 29 -2z m-115
-9 c0 -5 -7 -10 -15 -10 -8 0 -15 5 -15 10 0 6 7 10 15 10 8 0 15 -4 15 -10z
m-1423 -489 c3 -20 1 -22 -12 -11 -18 15 -20 43 -3 38 6 -2 13 -15 15 -27z
m167 -38 c8 -19 -1 -33 -19 -33 -8 0 -12 6 -9 14 3 8 1 17 -5 21 -18 11 -12
23 8 18 11 -3 22 -12 25 -20z m2868 -42 c52 -12 98 -31 98 -41 0 -3 16 -12 35
-20 32 -13 56 -40 35 -40 -14 0 -102 21 -125 31 -11 4 -33 10 -50 14 -16 4
-52 17 -81 31 -28 13 -58 24 -67 24 -10 0 -17 5 -17 11 0 13 97 7 172 -10z
m1148 -15 c0 -3 -4 -8 -10 -11 -5 -3 -10 -1 -10 4 0 6 5 11 10 11 6 0 10 -2
10 -4z m-3953 -78 c-3 -7 -5 -2 -5 12 0 14 2 19 5 13 2 -7 2 -19 0 -25z m3113
2 c-20 -13 -40 -13 -40 0 0 6 12 10 28 10 21 0 24 -2 12 -10z m-1321 -50 c5 0
12 8 14 18 4 16 9 -19 11 -78 1 -17 7 -25 19 -25 29 0 36 -26 33 -113 -3 -74
-1 -82 16 -82 13 0 18 -8 19 -27 4 -97 9 -157 18 -222 6 -41 8 -78 5 -83 -3
-5 -1 -14 4 -21 6 -7 12 -48 14 -92 3 -44 6 -86 9 -94 7 -25 -30 -24 -56 1
-14 13 -25 28 -25 34 0 19 -63 85 -76 80 -7 -3 -24 8 -38 24 -27 33 -50 38
-72 16 -21 -22 -14 -48 10 -33 2 1 13 -6 24 -16 11 -10 22 -15 24 -10 3 4 3 1
1 -7 -10 -36 -15 -31 70 -69 26 -12 45 -25 42 -31 -3 -5 -12 -7 -19 -4 -8 3
-17 0 -22 -7 -5 -9 -2 -10 10 -6 10 4 24 -1 36 -13 11 -11 31 -22 44 -26 45
-11 81 -81 63 -122 -7 -15 -5 -47 7 -104 10 -53 13 -84 6 -86 -15 -5 -12 -24
12 -73 25 -52 34 -182 18 -269 -6 -30 -12 -115 -14 -188 -2 -101 -6 -136 -16
-142 -8 -5 -18 -6 -22 -4 -4 3 -8 0 -8 -6 0 -6 -4 -8 -10 -5 -5 3 -10 -1 -10
-9 0 -14 -24 -22 -52 -17 -5 0 -8 -6 -8 -14 0 -9 -6 -12 -15 -9 -10 4 -15 0
-15 -12 -1 -18 -1 -18 -14 -2 -14 19 -76 25 -76 8 0 -5 -6 -10 -14 -10 -8 0
-16 -5 -18 -11 -2 -5 -10 -11 -18 -12 -8 -1 -26 -10 -39 -19 -26 -19 -51 -9
-51 18 0 17 -17 18 -24 2 -3 -10 -9 -8 -19 5 -8 9 -19 17 -26 17 -25 0 -10 52
32 109 17 23 17 23 17 2 0 -22 20 -30 20 -8 1 6 7 1 15 -13 7 -14 11 -35 8
-48 -3 -12 0 -29 7 -37 10 -13 14 -13 27 1 9 8 22 13 30 10 8 -3 12 -2 8 3 -9
16 6 41 26 41 16 0 18 6 15 33 -5 38 1 51 27 60 9 3 17 13 17 21 0 7 11 17 25
20 20 5 25 13 25 36 0 20 5 30 15 30 8 0 15 9 15 20 0 11 4 20 10 20 13 0 69
121 63 137 -9 22 -51 14 -99 -20 -32 -22 -48 -28 -51 -19 -9 23 -21 12 -36
-33 l-16 -45 24 6 c20 5 23 3 18 -15 -3 -12 -8 -21 -12 -22 -35 -4 -58 -12
-71 -25 -13 -13 -13 -14 3 -8 12 4 17 1 17 -10 0 -17 -25 -22 -34 -8 -10 17
-65 0 -72 -21 -3 -11 -17 -30 -30 -42 -13 -12 -24 -25 -24 -29 0 -8 -38 -63
-59 -85 -9 -10 -18 -12 -29 -5 -22 15 -29 39 -8 31 9 -4 16 -1 16 5 0 7 5 6
15 -2 12 -10 15 -10 15 3 0 8 -6 17 -13 20 -15 6 -22 77 -8 77 17 0 21 48 6
76 -8 16 -15 44 -15 62 0 17 -5 32 -11 32 -6 0 -8 8 -4 19 4 13 -2 27 -17 41
-19 17 -21 24 -10 40 7 12 8 20 2 20 -5 0 -10 16 -10 36 0 22 -9 47 -24 67
-36 47 -66 123 -66 168 0 30 -4 39 -17 40 -17 1 -17 2 0 6 9 2 17 8 17 13 0 5
-7 7 -15 4 -17 -7 -24 16 -29 110 -3 39 0 78 5 88 6 10 7 24 3 30 -10 15 -12
58 -3 58 4 0 7 19 6 43 0 71 15 191 28 217 11 23 18 55 30 134 3 16 9 34 15
40 5 5 10 24 10 42 0 17 7 37 15 44 9 7 14 18 12 24 -3 6 1 22 9 36 7 14 15
33 18 43 3 10 10 16 15 13 5 -3 6 13 4 37 -5 48 12 106 27 91 6 -6 11 -52 11
-102 0 -51 4 -92 8 -92 18 0 1 -546 -19 -630 -12 -52 -22 -168 -15 -180 4 -6
13 -5 25 2 10 7 17 15 15 18 -5 9 27 6 43 -4 6 -4 16 -5 22 -1 10 6 66 -52 63
-66 -3 -8 11 -13 30 -10 4 0 7 -9 7 -20 0 -12 10 -38 22 -57 21 -34 22 -35 31
-14 6 12 14 22 19 22 11 0 10 58 -2 65 -5 3 -10 17 -10 29 0 27 -25 92 -38 98
-4 1 -21 23 -38 48 -17 25 -44 65 -61 90 -67 100 -72 206 -17 417 13 51 27
118 30 148 4 31 12 58 18 60 43 12 48 16 39 28 -6 6 -13 26 -16 43 -4 23 -1
33 14 43 12 7 18 19 15 27 -3 8 -1 14 5 14 6 0 8 9 4 20 -3 11 -2 20 2 20 5 0
15 16 22 36 7 19 19 38 27 41 8 3 14 13 15 22 0 11 3 9 9 -6 5 -13 14 -23 19
-23z m-1763 -25 c-10 -11 -17 -12 -22 -4 -3 6 0 15 7 20 12 7 11 9 -1 9 -13 0
-13 1 0 10 22 13 35 -16 16 -35z m2139 -1 c8 3 17 1 20 -5 4 -5 10 -74 15
-152 5 -78 14 -164 20 -192 7 -27 13 -75 16 -105 2 -30 6 -66 10 -80 10 -42
11 -64 3 -97 -5 -23 -3 -36 8 -44 7 -7 12 -18 9 -26 -3 -7 -1 -13 4 -13 6 0
10 -9 10 -20 0 -11 5 -20 11 -20 6 0 8 -7 5 -16 -9 -23 4 -64 20 -64 8 0 14
-7 14 -15 0 -8 -4 -15 -9 -15 -5 0 -11 -9 -14 -20 -3 -12 -1 -17 5 -14 15 9
48 -27 48 -53 0 -12 4 -23 10 -23 5 0 7 -14 5 -32 -2 -18 0 -37 4 -43 5 -5 5
-28 1 -50 -7 -35 -9 -37 -15 -17 -4 12 -12 22 -17 22 -6 0 -7 -7 -4 -16 3 -8
2 -12 -4 -9 -6 3 -10 -1 -10 -9 0 -9 -6 -16 -12 -16 -9 0 -10 -3 -2 -8 19 -13
33 -47 24 -62 -9 -15 8 -62 20 -55 5 3 13 -8 18 -25 7 -18 7 -32 1 -35 -5 -4
-9 -3 -9 2 -1 32 -50 39 -50 7 0 -8 -3 -13 -7 -13 -22 4 -33 -2 -27 -13 5 -7
9 -19 9 -28 1 -8 5 -32 9 -54 6 -29 4 -37 -6 -34 -16 6 -38 -15 -38 -37 0 -9
9 -25 19 -37 22 -23 16 -56 -15 -73 -22 -11 -34 -26 -34 -39 0 -6 7 -1 16 10
8 10 13 13 9 7 -3 -7 -1 -13 4 -13 17 0 13 -49 -4 -67 -29 -28 -42 -10 -35 50
3 30 4 60 2 66 -7 20 -32 11 -42 -14 -5 -14 -21 -37 -34 -52 l-24 -25 -7 31
c-3 17 -5 43 -4 58 1 16 -2 46 -8 68 -6 22 -16 119 -23 216 -13 191 -21 246
-35 241 -12 -4 -24 25 -24 58 l1 25 10 -27 c14 -40 24 -35 20 10 -2 20 1 48 6
62 6 15 6 38 0 58 -7 25 -5 44 6 73 15 36 13 43 -7 40 -4 -1 -5 9 -2 22 8 31
6 146 -4 235 0 9 -8 11 -21 7 -19 -6 -19 -3 -14 76 4 54 3 84 -5 88 -19 12
-23 88 -5 105 8 9 11 16 6 16 -12 0 -24 40 -28 95 -5 54 3 85 22 85 8 0 14 6
13 13 -3 26 2 37 17 37 8 0 12 5 9 10 -3 6 -2 10 3 10 6 0 12 -6 15 -13 2 -7
19 -14 36 -15 26 -2 31 1 32 20 l0 23 10 -24 c6 -14 15 -21 24 -17z m-1410 16
c3 -5 1 -10 -4 -10 -6 0 -11 5 -11 10 0 6 2 10 4 10 3 0 8 -4 11 -10z m1519
-6 c3 -9 6 -50 6 -92 1 -87 14 -115 56 -117 31 -1 32 2 38 80 3 33 5 65 6 70
2 25 34 -53 32 -80 -6 -126 -6 -215 0 -215 5 0 8 -9 8 -20 0 -15 7 -20 28 -20
21 1 24 3 11 10 -22 13 -14 74 9 65 8 -3 18 -1 22 5 4 6 7 -4 8 -22 1 -22 -2
-28 -8 -18 -14 22 -23 4 -10 -20 15 -28 -14 -112 -36 -103 -8 3 -14 0 -14 -6
0 -7 7 -14 15 -17 8 -4 15 -13 15 -20 0 -12 4 -12 21 -4 11 7 23 9 27 6 3 -3
0 -6 -7 -6 -8 0 -11 -7 -7 -15 4 -11 -2 -15 -20 -15 -22 0 -24 -2 -13 -21 8
-15 8 -19 0 -15 -6 4 -11 2 -11 -3 0 -6 6 -11 13 -12 9 0 9 -2 0 -6 -8 -3 -11
-14 -7 -29 4 -15 2 -24 -6 -24 -7 0 -10 -6 -7 -14 3 -8 1 -16 -6 -19 -13 -4
-10 -100 4 -105 5 -2 9 -16 9 -32 0 -19 -6 -29 -20 -33 -23 -6 -30 3 -36 46
-3 18 -9 41 -14 52 -18 40 -33 101 -37 143 -1 24 -10 70 -18 103 -17 66 -24
124 -25 217 0 54 -4 66 -25 86 -30 28 -40 83 -30 171 6 64 17 81 29 49z m1785
-80 c4 3 8 -2 8 -10 0 -9 -6 -13 -15 -9 -10 3 -12 0 -9 -10 4 -8 2 -17 -2 -20
-5 -2 -12 -25 -15 -50 -4 -24 -12 -48 -18 -51 -8 -5 -9 -1 -5 10 5 14 3 17 -8
12 -8 -3 -15 0 -15 7 0 7 -5 4 -11 -6 -6 -9 -15 -14 -21 -11 -7 5 -8 2 -2 -7
20 -32 6 -76 -22 -65 -7 3 -14 -3 -17 -12 -2 -9 -5 0 -8 20 -3 26 -1 39 9 43
7 2 10 0 7 -5 -3 -6 -2 -10 4 -10 20 0 21 19 1 25 -12 4 -20 15 -20 28 0 12
-3 32 -6 45 -5 16 -2 22 9 22 8 0 20 12 25 28 6 15 11 21 11 13 1 -10 7 -8 19
7 13 15 27 20 45 16 18 -3 27 0 27 8 0 8 5 5 11 -5 6 -9 14 -15 18 -13z
m-4174 -4 c9 14 34 -17 35 -42 0 -10 5 -18 10 -18 17 0 11 -26 -10 -45 -11
-10 -20 -13 -20 -7 0 7 -7 12 -15 12 -8 0 -15 7 -15 15 0 9 -6 18 -14 21 -8 3
-12 12 -9 20 3 8 -1 14 -11 14 -14 0 -14 2 2 18 11 12 21 16 29 10 7 -5 14 -5
18 2z m4015 0 c0 -5 -2 -10 -4 -10 -3 0 -8 5 -11 10 -3 6 -1 10 4 10 6 0 11
-4 11 -10z m-3880 -26 c0 -8 -4 -12 -10 -9 -5 3 -10 10 -10 16 0 5 5 9 10 9 6
0 10 -7 10 -16z m465 6 c3 -5 -1 -10 -9 -10 -8 0 -18 5 -21 10 -3 6 1 10 9 10
8 0 18 -4 21 -10z m2320 -40 c3 -5 2 -10 -4 -10 -5 0 -13 5 -16 10 -3 6 -2 10
4 10 5 0 13 -4 16 -10z m-1458 -25 c5 -16 -14 -38 -26 -31 -18 12 -13 48 6 44
9 -2 18 -7 20 -13z m1583 6 c0 -4 11 -6 25 -3 40 7 134 -21 230 -70 22 -11 47
-19 55 -18 31 5 39 -1 36 -25 -3 -30 -10 -38 -37 -42 -16 -2 -20 1 -15 12 4
11 -1 15 -19 15 -14 0 -25 -6 -25 -13 0 -8 -12 -20 -26 -27 -24 -13 -27 -12
-50 18 -15 19 -31 29 -39 26 -9 -4 -30 11 -54 36 -30 33 -44 40 -60 35 -16 -5
-20 -3 -15 9 4 10 0 18 -10 22 -17 7 -22 34 -6 34 6 0 10 -4 10 -9z m-1600
-61 c0 -5 -5 -10 -11 -10 -5 0 -7 5 -4 10 3 6 8 10 11 10 2 0 4 -4 4 -10z
m2660 -4 c0 -3 -4 -8 -10 -11 -5 -3 -10 -1 -10 4 0 6 5 11 10 11 6 0 10 -2 10
-4z m-2670 -28 c0 -7 -4 -19 -9 -26 -6 -11 -9 -9 -14 7 -2 11 -2 22 1 25 10
10 22 6 22 -6z m-29 -67 c-5 -9 -11 -33 -15 -53 -4 -21 -12 -38 -18 -38 -6 0
-8 9 -4 23 4 12 9 36 12 52 10 55 14 61 24 45 5 -8 5 -21 1 -29z m1799 8 c0
-6 -4 -7 -10 -4 -5 3 -10 11 -10 16 0 6 5 7 10 4 6 -3 10 -11 10 -16z m850
-14 c0 -8 -4 -15 -10 -15 -5 0 -10 7 -10 15 0 8 5 15 10 15 6 0 10 -7 10 -15z
m-3723 -40 c8 -8 19 -12 25 -9 7 5 9 -1 5 -17 -5 -18 -1 -28 13 -37 12 -7 22
-28 26 -52 4 -22 11 -43 15 -46 5 -3 9 -14 9 -24 0 -11 18 -38 40 -62 76 -81
89 -134 37 -152 -20 -7 -33 -7 -45 2 -9 7 -25 15 -35 19 -14 4 -17 12 -12 30
3 14 0 34 -8 47 -7 11 -19 41 -26 65 -7 25 -20 55 -28 68 -9 13 -13 26 -9 30
3 3 -6 22 -20 41 -20 26 -24 36 -14 42 7 4 10 15 7 25 -4 9 -11 13 -17 10 -14
-9 -13 3 3 20 15 18 15 18 34 0z m3658 -65 c-3 -5 -1 -10 5 -10 7 0 10 -6 7
-12 -2 -7 0 -21 5 -32 7 -13 7 -16 -1 -12 -6 4 -11 3 -11 -3 0 -15 38 -33 51
-25 14 8 29 -14 22 -32 -2 -7 -10 -11 -17 -8 -7 3 -19 -3 -27 -12 -12 -16 -12
-17 4 -11 13 5 16 3 10 -6 -4 -6 -6 -20 -5 -29 2 -10 -2 -18 -7 -18 -6 0 -12
8 -12 18 -1 9 -5 4 -9 -13 -4 -16 -8 -22 -9 -13 0 9 -10 20 -21 23 -11 3 -20
11 -20 16 0 18 -2 24 -10 35 -5 5 -6 20 -3 33 4 17 8 19 14 9 7 -10 9 -9 9 5
0 9 5 17 10 17 6 0 10 5 10 10 0 6 -7 10 -15 10 -8 0 -15 3 -16 8 0 4 -2 17
-5 30 -2 14 0 21 6 17 5 -3 10 -1 10 4 0 6 7 11 16 11 8 0 12 -4 9 -10z m-78
-112 c-3 -8 -6 -5 -6 6 -1 11 2 17 5 13 3 -3 4 -12 1 -19z m-27 2 c0 -5 -2
-10 -4 -10 -3 0 -8 5 -11 10 -3 6 -1 10 4 10 6 0 11 -4 11 -10z m200 -44 c0
-3 -4 -8 -10 -11 -5 -3 -10 -1 -10 4 0 6 5 11 10 11 6 0 10 -2 10 -4z m-4612
-211 c14 -30 16 -95 4 -95 -14 0 -32 48 -32 85 0 41 12 45 28 10z m4652 -49
c0 -2 -7 -6 -15 -10 -8 -3 -15 -1 -15 4 0 6 7 10 15 10 8 0 15 -2 15 -4z
m-1554 -56 c9 0 12 -5 9 -10 -8 -13 -35 6 -34 24 0 7 2 6 6 -1 2 -7 11 -13 19
-13z m-3023 -165 c4 -8 1 -17 -5 -21 -7 -4 -8 -3 -4 4 4 7 2 12 -4 12 -6 0 -8
5 -5 10 8 14 12 13 18 -5z m542 5 c3 -5 15 -10 26 -10 23 0 23 -1 3 -44 -14
-29 -19 -32 -30 -21 -8 7 -14 21 -14 29 0 9 -7 16 -15 16 -8 0 -15 9 -15 20 0
21 33 29 45 10z m55 -54 c0 -2 -7 -9 -15 -16 -13 -11 -14 -10 -9 4 5 14 24 23
24 12z m-690 -60 c0 -13 -6 -23 -15 -23 -8 0 -12 4 -9 8 2 4 -1 9 -8 11 -6 2
-9 12 -5 21 9 23 37 10 37 -17z m750 20 c0 -2 -7 -7 -16 -10 -8 -3 -12 -2 -9
4 6 10 25 14 25 6z m2298 -38 c-3 -7 -11 -13 -18 -13 -7 0 -15 6 -17 13 -3 7
4 12 17 12 13 0 20 -5 18 -12z m-1978 -313 c0 -8 -4 -15 -10 -15 -5 0 -10 7
-10 15 0 8 5 15 10 15 6 0 10 -7 10 -15z m1807 -240 c-4 -8 -2 -17 2 -20 5 -3
7 -14 4 -26 -4 -16 -8 -17 -14 -7 -13 19 -11 68 2 68 6 0 9 -7 6 -15z m-835
-77 c-2 -10 -1 -18 4 -16 5 2 10 0 12 -4 1 -5 -1 -8 -4 -7 -4 0 -11 -5 -15
-13 -6 -8 -9 6 -9 37 0 32 3 45 9 36 5 -7 6 -22 3 -33z m-942 -198 c0 -5 -4
-10 -10 -10 -5 0 -10 5 -10 10 0 6 5 10 10 10 6 0 10 -4 10 -10z m3684 -134
c-6 -15 -24 -23 -24 -11 0 8 24 34 28 30 1 -1 0 -10 -4 -19z m-290 -11 c6 -8
23 -16 39 -17 24 -2 40 -18 17 -18 -33 0 -109 24 -114 36 -7 19 43 19 58 -1z"/>
<path d="M707 5069 c7 -7 15 -10 18 -7 3 3 -2 9 -12 12 -14 6 -15 5 -6 -5z"/>
<path d="M1601 2934 c0 -11 3 -14 6 -6 3 7 2 16 -1 19 -3 4 -6 -2 -5 -13z"/>
<path d="M2685 1220 c-3 -5 -1 -10 4 -10 6 0 11 5 11 10 0 6 -2 10 -4 10 -3 0
-8 -4 -11 -10z"/>
<path d="M2305 1143 c2 -39 18 -55 28 -28 8 18 -8 65 -22 65 -5 0 -8 -17 -6
-37z"/>
<path d="M2347 1083 c4 -21 2 -24 -6 -13 -5 8 -13 11 -17 8 -3 -4 0 -13 8 -21
19 -20 38 1 27 31 -11 30 -17 28 -12 -5z"/>
<path d="M2710 880 c0 -5 7 -10 16 -10 8 0 12 5 9 10 -3 6 -10 10 -16 10 -5 0
-9 -4 -9 -10z"/>
<path d="M2750 880 c0 -5 5 -10 10 -10 6 0 10 5 10 10 0 6 -4 10 -10 10 -5 0
-10 -4 -10 -10z"/>
<path d="M2690 841 c0 -12 5 -21 10 -21 6 0 10 6 10 14 0 8 -4 18 -10 21 -5 3
-10 -3 -10 -14z"/>
<path d="M2840 2015 c0 -8 5 -15 10 -15 6 0 10 7 10 15 0 8 -4 15 -10 15 -5 0
-10 -7 -10 -15z"/>
<path d="M2950 1650 c0 -5 5 -10 11 -10 5 0 7 5 4 10 -3 6 -8 10 -11 10 -2 0
-4 -4 -4 -10z"/>
<path d="M3152 1240 c0 -14 2 -19 5 -12 2 6 2 18 0 25 -3 6 -5 1 -5 -13z"/>
<path d="M4830 2206 c0 -7 6 -18 13 -24 10 -8 13 -6 14 8 1 10 -5 21 -13 24
-8 3 -14 -1 -14 -8z"/>
<path d="M4820 2170 c0 -5 5 -10 11 -10 5 0 7 5 4 10 -3 6 -8 10 -11 10 -2 0
-4 -4 -4 -10z"/>
<path d="M4826 2138 c5 -8 2 -9 -9 -5 -20 7 -22 -4 -5 -21 8 -8 15 -9 25 -1
17 15 16 26 -3 33 -10 4 -13 2 -8 -6z"/>
<path d="M4770 2125 c0 -8 4 -15 10 -15 5 0 7 7 4 15 -4 8 -8 15 -10 15 -2 0
-4 -7 -4 -15z"/>
<path d="M3885 2080 c-3 -5 -1 -10 4 -10 6 0 11 5 11 10 0 6 -2 10 -4 10 -3 0
-8 -4 -11 -10z"/>
<path d="M4075 2020 c-3 -5 -1 -10 4 -10 6 0 11 5 11 10 0 6 -2 10 -4 10 -3 0
-8 -4 -11 -10z"/>
<path d="M1407 5230 c-3 -11 1 -27 9 -35 8 -7 13 -18 12 -22 -1 -4 10 -27 26
-50 15 -23 25 -46 22 -51 -3 -6 2 -13 11 -16 11 -5 14 -10 6 -14 -16 -11 3
-53 28 -59 12 -3 18 -11 15 -19 -3 -8 -1 -14 4 -14 6 0 9 -3 9 -7 -4 -22 2
-43 12 -43 5 0 7 5 3 12 -4 7 -3 8 4 4 6 -4 9 -13 6 -20 -3 -7 6 -21 20 -30
21 -13 51 -62 61 -96 2 -9 44 -75 55 -87 8 -9 8 -13 0 -13 -6 0 10 -22 36 -49
26 -28 52 -47 56 -45 5 3 32 7 59 8 30 2 61 11 77 22 22 16 83 39 159 60 7 2
11 9 8 16 -3 7 -1 19 4 27 7 11 12 11 31 -2 21 -15 26 -15 54 0 17 9 51 15 75
14 28 -1 50 4 61 14 15 14 18 14 30 0 15 -18 51 -20 68 -3 8 8 15 8 26 -1 14
-12 107 -21 200 -21 21 1 44 -5 52 -11 8 -6 33 -13 57 -15 45 -4 176 -42 192
-56 5 -4 21 -8 36 -8 15 0 40 -11 56 -24 23 -19 33 -22 48 -14 15 9 30 5 72
-17 l53 -29 28 27 c32 31 54 34 73 11 11 -14 10 -18 -6 -30 -10 -8 -25 -14
-33 -14 -7 0 -12 -8 -10 -17 2 -13 13 -18 38 -18 27 0 35 -5 38 -20 3 -11 9
-23 16 -27 17 -11 74 -9 81 3 4 6 19 7 37 4 52 -12 217 14 273 42 47 24 53 25
80 11 21 -10 42 -12 70 -7 22 4 63 8 90 9 28 0 77 8 110 17 33 8 123 19 199
24 77 5 142 11 144 14 3 3 -3 12 -14 19 -18 14 -18 15 -1 21 11 5 14 11 9 19
-5 6 -13 28 -16 50 -5 26 -20 50 -47 75 -21 21 -41 36 -44 33 -3 -3 -5 2 -5
11 0 9 -4 17 -10 17 -5 0 -10 7 -10 15 0 8 -4 15 -9 15 -9 0 -23 39 -27 75 -5
44 -14 68 -30 80 -11 7 -15 19 -11 29 5 12 -1 19 -18 26 -14 5 -25 14 -25 20
0 13 -66 80 -79 80 -5 0 -12 12 -15 26 -5 20 -10 24 -19 15 -16 -16 -27 -14
-27 5 0 8 -4 12 -10 9 -6 -4 -10 5 -10 20 l0 25 -560 0 c-399 -1 -559 -4 -554
-11 4 -6 0 -15 -7 -20 -11 -6 -11 -11 -2 -20 9 -9 10 -16 2 -26 -17 -20 -29
-16 -29 10 0 18 -2 19 -10 7 -7 -11 -10 -7 -10 18 0 20 4 31 10 27 6 -3 10 -1
10 4 0 8 -224 11 -734 11 -727 0 -734 0 -739 -20z m2678 -70 c-3 -5 -10 -10
-16 -10 -5 0 -9 5 -9 10 0 6 7 10 16 10 8 0 12 -4 9 -10z m-1155 -49 c0 -12
-30 -22 -43 -14 -7 4 -3 9 9 14 26 10 34 10 34 0z m-80 -41 c0 -5 -2 -10 -4
-10 -3 0 -8 5 -11 10 -3 6 -1 10 4 10 6 0 11 -4 11 -10z m1070 -30 c0 -5 -2
-10 -4 -10 -3 0 -8 5 -11 10 -3 6 -1 10 4 10 6 0 11 -4 11 -10z m57 -36 c-3
-3 -12 -4 -19 -1 -8 3 -5 6 6 6 11 1 17 -2 13 -5z m-587 -84 c0 -11 4 -20 9
-20 12 0 22 -83 11 -94 -6 -6 -12 -2 -16 10 -3 10 -10 28 -14 39 -9 20 -13 49
-11 73 2 20 21 13 21 -8z m522 -102 c-6 -6 -7 0 -4 19 5 21 7 23 10 9 2 -10 0
-22 -6 -28z m78 -97 c0 -6 -4 -13 -10 -16 -5 -3 -10 1 -10 9 0 9 5 16 10 16 6
0 10 -4 10 -9z"/>
<path d="M5040 5230 c0 -11 -5 -20 -11 -20 -6 0 -17 -7 -26 -15 -13 -14 -13
-18 0 -38 27 -40 103 -117 115 -117 7 0 10 5 7 10 -3 6 1 10 10 10 9 0 13 5
10 10 -3 6 -2 10 3 10 11 0 42 88 42 119 0 11 5 23 10 26 27 17 2 25 -75 25
-78 0 -85 -2 -85 -20z"/>
<path d="M4200 5080 c0 -5 5 -10 11 -10 5 0 7 5 4 10 -3 6 -8 10 -11 10 -2 0
-4 -4 -4 -10z"/>
<path d="M4861 5064 c0 -11 3 -14 6 -6 3 7 2 16 -1 19 -3 4 -6 -2 -5 -13z"/>
<path d="M4437 4393 c-3 -2 -23 -6 -45 -9 -44 -4 -237 -49 -278 -64 -14 -6
-71 -19 -127 -30 -56 -11 -131 -27 -167 -34 -36 -8 -83 -18 -105 -21 -119 -18
-181 -38 -214 -69 -32 -30 -76 -90 -80 -111 -2 -5 -6 -14 -10 -20 -14 -17 -21
-60 -12 -73 6 -10 14 -5 29 20 12 18 22 27 22 19 0 -11 3 -11 15 -1 8 7 15 18
15 25 0 7 6 15 14 18 8 3 12 16 11 31 -3 21 3 30 27 42 46 24 140 53 170 54
15 0 29 4 32 9 4 5 25 12 49 16 23 3 53 10 67 15 14 5 52 16 85 25 33 9 74 23
91 32 17 8 60 19 95 24 104 15 129 21 129 30 0 5 23 9 51 9 111 0 229 30 229
59 0 7 -86 11 -93 4z"/>
<path d="M2990 4251 c0 -5 5 -13 10 -16 6 -3 10 -2 10 4 0 5 -4 13 -10 16 -5
3 -10 2 -10 -4z"/>
<path d="M2175 4222 c-25 -5 -57 -32 -52 -46 2 -5 40 -11 85 -13 83 -3 143
-23 171 -57 8 -9 19 -16 25 -16 7 0 25 -20 40 -44 16 -26 33 -43 41 -40 7 3
16 1 20 -5 3 -6 0 -11 -7 -11 -13 -1 19 -30 33 -30 9 0 6 20 -4 38 -6 8 -2 12
10 12 13 1 11 5 -9 16 -25 13 -30 23 -27 52 0 4 6 6 14 4 7 -1 16 2 20 8 3 5
-1 10 -9 10 -8 0 -22 10 -30 21 -19 27 -115 77 -185 95 -50 14 -89 15 -136 6z"/>
<path d="M2810 4170 c-9 -16 -8 -18 5 -14 8 4 15 12 15 20 0 20 -7 17 -20 -6z"/>
<path d="M2100 4150 c0 -11 -5 -20 -11 -20 -5 0 -7 4 -4 10 3 6 -1 7 -9 4 -18
-7 -21 -24 -5 -24 6 0 9 -9 6 -20 -4 -18 -2 -20 16 -14 28 8 28 8 30 32 0 11
4 20 7 20 18 -2 30 3 30 13 0 5 -4 7 -10 4 -5 -3 -19 -1 -30 5 -17 9 -20 8
-20 -10z"/>
<path d="M3045 4116 c-23 -7 -49 -17 -58 -23 -31 -17 -167 -156 -167 -170 0
-17 38 -55 49 -49 4 3 39 -3 76 -14 41 -12 86 -18 112 -15 41 4 120 42 141 68
17 21 43 109 37 126 -5 18 -117 91 -137 90 -7 0 -31 -6 -53 -13z m22 -97 c16
-16 5 -39 -17 -39 -25 0 -35 18 -20 35 15 18 22 19 37 4z m-68 -28 c11 -7 9
-10 -8 -16 -26 -8 -49 4 -30 16 17 11 21 11 38 0z"/>
<path d="M1818 4093 c7 -3 16 -2 19 1 4 3 -2 6 -13 5 -11 0 -14 -3 -6 -6z"/>
<path d="M2110 4079 c-42 -15 -50 -15 -50 -3 0 8 -5 14 -11 14 -5 0 -7 -4 -4
-10 3 -5 1 -10 -4 -10 -6 0 -18 -18 -27 -40 -9 -22 -20 -37 -25 -34 -15 9 -10
-3 9 -22 12 -12 17 -32 16 -66 0 -26 3 -48 7 -48 6 0 20 -39 19 -55 0 -9 44
-49 65 -60 25 -13 64 -13 66 0 0 6 7 18 16 27 13 15 13 16 -6 11 -12 -3 -21
-1 -21 4 0 5 -10 9 -21 10 -25 2 -35 10 -26 20 4 3 31 1 59 -5 55 -12 120 -10
198 7 26 5 49 6 54 1 10 -10 75 58 76 79 0 18 -80 97 -143 140 -84 57 -162 70
-247 40z m223 -124 c-6 -17 -25 -15 -31 3 -2 7 5 12 17 12 14 0 19 -5 14 -15z
m-73 -5 c0 -5 -10 -10 -22 -10 -19 0 -20 2 -8 10 19 13 30 13 30 0z"/>
<path d="M2730 3990 c0 -5 5 -10 10 -10 6 0 10 5 10 10 0 6 -4 10 -10 10 -5 0
-10 -4 -10 -10z"/>
<path d="M2585 3970 c3 -5 8 -10 11 -10 2 0 4 5 4 10 0 6 -5 10 -11 10 -5 0
-7 -4 -4 -10z"/>
<path d="M2536 3921 c-3 -5 3 -11 13 -14 14 -3 18 -1 14 9 -6 16 -19 18 -27 5z"/>
<path d="M2562 3839 c-20 -24 -20 -28 -5 -34 14 -5 15 -8 4 -14 -11 -7 -11
-13 -1 -27 10 -17 11 -17 6 -1 -8 25 14 31 81 19 32 -5 60 -6 63 -2 6 8 51 25
61 22 4 -1 5 8 2 18 -6 21 -37 27 -49 9 -3 -6 -17 -8 -33 -4 -14 4 -36 8 -49
9 -12 1 -30 9 -40 17 -16 13 -19 12 -40 -12z"/>
<path d="M3353 3699 c-4 -15 -8 -17 -13 -8 -6 9 -12 9 -24 -3 -14 -15 -14 -17
1 -22 20 -8 63 19 63 39 0 23 -21 18 -27 -6z"/>
<path d="M1633 3650 c-13 -5 -23 -14 -23 -20 0 -6 4 -8 10 -5 5 3 7 0 4 -8 -3
-8 2 -17 10 -20 13 -5 14 -12 6 -32 -7 -19 -6 -33 2 -48 7 -12 11 -25 10 -29
-4 -13 16 -9 21 5 4 9 8 8 16 -3 14 -19 14 -60 1 -60 -5 0 -10 -4 -10 -9 0 -6
15 -7 34 -4 28 4 34 2 39 -17 5 -19 11 -22 35 -17 31 6 73 -15 98 -52 19 -26
36 -27 52 -1 7 11 22 20 34 20 16 0 19 3 11 11 -14 14 -5 78 14 101 13 15 13
16 -6 11 -12 -3 -21 -1 -21 6 0 6 -7 11 -15 11 -9 0 -19 8 -22 18 -9 23 -25
37 -43 38 -28 1 -108 42 -123 64 -8 12 -21 22 -28 24 -8 1 -24 7 -36 14 -25
14 -39 14 -70 2z"/>
<path d="M1990 3380 c0 -5 5 -10 10 -10 6 0 10 5 10 10 0 6 -4 10 -10 10 -5 0
-10 -4 -10 -10z"/>
<path d="M1478 3273 c7 -3 16 -2 19 1 4 3 -2 6 -13 5 -11 0 -14 -3 -6 -6z"/>
<path d="M395 2890 c-3 -6 1 -7 9 -4 18 7 21 14 7 14 -6 0 -13 -4 -16 -10z"/>
<path d="M4127 2554 c-4 -4 -7 -14 -7 -23 0 -11 3 -12 11 -4 6 6 10 16 7 23
-2 6 -7 8 -11 4z"/>
<path d="M4330 1941 c-5 -11 -10 -27 -10 -35 0 -9 -4 -16 -9 -16 -12 0 -7 -33
6 -37 10 -4 20 23 30 80 5 32 -2 35 -17 8z"/>
<path d="M4547 1413 c-10 -9 -9 -23 2 -23 5 0 11 7 15 15 5 15 -5 20 -17 8z"/>
<path d="M4180 1369 c7 -11 14 -19 16 -16 7 7 -7 37 -17 37 -6 0 -5 -9 1 -21z"/>
<path d="M4305 1140 c-3 -5 3 -22 14 -35 11 -15 22 -21 26 -15 3 5 2 10 -4 10
-6 0 -8 6 -5 13 6 18 -22 42 -31 27z"/>
<path d="M585 1061 c-41 -13 -85 -42 -85 -56 0 -9 13 -15 38 -17 36 -3 37 -4
34 -37 -4 -33 -3 -34 29 -27 18 3 36 11 40 17 10 16 48 -7 59 -37 12 -32 18
-31 64 12 36 33 37 36 20 49 -11 8 -24 15 -30 15 -6 0 -19 9 -30 21 -16 18
-107 71 -116 68 -2 -1 -12 -4 -23 -8z"/>
<path d="M4030 1005 c0 -9 8 -18 18 -22 9 -3 34 -24 55 -46 21 -21 41 -36 44
-33 13 13 3 71 -13 83 -25 18 -44 16 -44 -4 0 -12 -6 -10 -23 10 -26 31 -37
34 -37 12z"/>
<path d="M4184 988 c3 -13 6 -29 6 -36 0 -8 6 -12 12 -10 17 6 38 -16 38 -41
0 -11 5 -23 10 -26 6 -4 8 -11 5 -16 -4 -5 -1 -9 4 -9 14 0 14 31 0 67 -7 15
-12 38 -13 51 -2 26 -21 42 -50 42 -14 0 -17 -5 -12 -22z"/>
<path d="M930 977 c0 -18 21 -37 41 -37 27 0 33 20 13 35 -24 18 -54 19 -54 2z"/>
<path d="M3860 959 c-7 -11 -9 -23 -6 -26 8 -9 36 17 36 33 0 21 -18 17 -30
-7z"/>
<path d="M477 923 c-7 -6 38 -33 56 -33 5 0 2 9 -8 20 -18 20 -36 25 -48 13z"/>
<path d="M5064 869 c-3 -5 -8 -7 -12 -5 -4 2 -13 -2 -20 -10 -7 -8 -9 -14 -5
-15 4 0 22 -2 38 -4 39 -5 65 9 48 26 -16 16 -41 20 -49 8z"/>
<path d="M4097 853 c-11 -18 11 -35 48 -37 20 -1 39 2 41 6 3 5 -2 8 -11 8 -9
0 -14 4 -11 8 2 4 -3 8 -12 8 -9 1 -24 4 -33 8 -10 4 -19 3 -22 -1z"/>
<path d="M155 830 c-11 -17 26 -60 51 -60 29 0 30 4 3 41 -21 29 -43 37 -54
19z"/>
<path d="M325 829 c-4 -5 -14 -9 -23 -7 -10 2 -22 -1 -28 -6 -14 -13 20 -41
73 -60 42 -15 199 -14 248 2 l30 9 -26 7 c-14 4 -54 8 -87 9 -34 1 -62 6 -62
10 0 9 -85 47 -105 47 -8 0 -17 -5 -20 -11z"/>
<path d="M4210 825 c0 -34 15 -48 44 -41 21 5 24 3 19 -11 -4 -13 -3 -15 5 -8
14 13 4 55 -14 57 -8 0 -20 1 -26 2 -7 1 -16 6 -20 11 -4 6 -8 1 -8 -10z"/>
<path d="M820 775 c0 -35 17 -50 60 -51 19 0 43 -4 52 -8 13 -6 20 -2 29 18
16 33 2 50 -44 53 -18 1 -47 5 -64 8 -31 7 -33 5 -33 -20z"/>
<path d="M4116 749 c-18 -26 -12 -43 19 -57 18 -8 25 -8 28 2 3 8 0 19 -6 25
-8 8 -7 14 2 24 10 8 12 8 7 0 -3 -6 -2 -14 4 -18 6 -3 13 1 16 10 8 19 6 20
-28 29 -21 5 -30 1 -42 -15z"/>
<path d="M650 680 c0 -5 5 -10 10 -10 6 0 10 5 10 10 0 6 -4 10 -10 10 -5 0
-10 -4 -10 -10z"/>
<path d="M4736 672 c-15 -18 -14 -19 24 -20 43 -2 52 11 21 28 -25 13 -25 13
-45 -8z"/>
<path d="M4564 667 c-24 -13 -17 -47 13 -58 33 -12 53 -5 53 20 0 11 5 23 10
26 20 12 9 20 -26 20 -19 0 -42 -4 -50 -8z"/>
<path d="M1090 600 c0 -5 7 -10 16 -10 8 0 12 5 9 10 -3 6 -10 10 -16 10 -5 0
-9 -4 -9 -10z"/>
<path d="M237 593 c-15 -14 -5 -25 36 -43 52 -23 158 -39 141 -20 -7 6 -31 16
-54 21 -24 5 -54 19 -68 29 -26 21 -44 25 -55 13z"/>
<path d="M560 590 c0 -12 45 -24 60 -15 5 3 8 11 5 16 -8 12 -65 12 -65 -1z"/>
<path d="M120 577 c0 -7 7 -23 16 -35 l16 -23 16 22 c14 20 14 23 -3 35 -24
18 -45 18 -45 1z"/>
<path d="M380 582 c0 -11 53 -29 69 -24 8 3 1 10 -19 18 -37 16 -50 17 -50 6z"/>
<path d="M3950 577 c0 -8 10 -34 23 -59 13 -25 22 -57 20 -71 -2 -14 1 -28 7
-32 5 -3 10 -14 10 -23 0 -9 5 -24 10 -32 15 -24 51 22 52 68 2 47 -28 120
-43 105 -18 -18 -47 -3 -54 28 -7 29 -25 41 -25 16z"/>
<path d="M840 573 c0 -18 55 -83 70 -83 30 0 30 12 -3 51 -28 34 -67 52 -67
32z"/>
<path d="M4320 569 c0 -5 9 -9 20 -9 11 0 20 4 20 8 0 4 -9 8 -20 9 -11 1 -20
-2 -20 -8z"/>
<path d="M530 541 c0 -5 7 -24 15 -42 14 -34 14 -34 15 -6 0 31 11 35 31 10
28 -33 113 -54 93 -22 -15 25 -154 79 -154 60z"/>
<path d="M430 480 c0 -6 5 -10 11 -10 6 0 22 -9 36 -20 14 -11 34 -20 44 -20
11 0 19 -5 19 -11 0 -6 -9 -9 -20 -6 -11 3 -22 2 -25 -3 -14 -23 72 -48 105
-30 16 8 25 7 43 -5 12 -8 20 -19 18 -23 -2 -4 7 -12 20 -19 19 -10 25 -10 32
2 10 19 22 19 42 -1 14 -15 14 -18 0 -34 -8 -9 -12 -20 -9 -23 4 -4 -1 -9 -10
-13 -18 -7 -22 -29 -6 -39 5 -3 28 -1 51 5 46 13 52 10 43 -14 -6 -15 -16 -16
-74 -10 -45 4 -74 2 -90 -6 -26 -14 -16 -28 25 -34 17 -3 41 -8 54 -12 17 -5
22 -4 17 4 -5 8 1 12 18 12 14 0 27 -4 31 -9 3 -6 22 -10 43 -10 20 0 56 -2
80 -5 49 -7 81 11 59 33 -9 10 -8 16 7 26 22 16 16 20 -48 29 -50 7 -64 20
-45 42 12 15 11 18 -5 28 -11 6 -34 23 -51 39 -18 15 -48 30 -66 33 -19 3 -44
18 -56 32 -20 23 -29 26 -92 26 -47 1 -72 5 -76 14 -2 6 -13 12 -23 12 -10 0
-22 4 -27 9 -15 13 -75 22 -75 11z m280 -120 c0 -5 -7 -10 -15 -10 -8 0 -15 5
-15 10 0 6 7 10 15 10 8 0 15 -4 15 -10z"/>
<path d="M13 463 c-8 -3 -13 -21 -13 -43 0 -41 16 -52 64 -43 27 5 48 44 27
51 -6 2 -17 9 -24 16 -16 16 -39 24 -54 19z"/>
<path d="M167 406 c-17 -25 -16 -26 8 -42 42 -27 61 4 27 46 l-18 22 -17 -26z"/>
<path d="M375 420 c3 -5 10 -10 16 -10 5 0 9 5 9 10 0 6 -7 10 -16 10 -8 0
-12 -4 -9 -10z"/>
<path d="M4768 422 c-10 -2 -18 -10 -18 -18 0 -18 29 -18 53 0 17 13 17 14 0
18 -10 2 -26 2 -35 0z"/>
<path d="M867 412 c-16 -2 -27 -8 -24 -15 5 -16 66 -32 77 -21 15 15 -21 39
-53 36z"/>
<path d="M4649 393 c-13 -16 -12 -17 4 -4 16 13 21 21 13 21 -2 0 -10 -8 -17
-17z"/>
<path d="M4987 404 c-10 -11 3 -24 24 -24 23 0 25 15 3 24 -19 7 -19 7 -27 0z"/>
<path d="M425 367 c11 -8 23 -13 27 -11 4 2 9 0 13 -6 8 -13 25 -13 25 -1 0 9
-12 14 -65 28 -20 5 -20 5 0 -10z"/>
<path d="M1010 370 c-12 -8 -11 -10 7 -10 12 0 30 -3 40 -6 16 -5 16 -4 -1 10
-23 19 -26 19 -46 6z"/>
<path d="M298 363 c7 -3 16 -2 19 1 4 3 -2 6 -13 5 -11 0 -14 -3 -6 -6z"/>
<path d="M44 338 c-3 -5 -15 -8 -25 -5 -11 3 -19 0 -19 -7 0 -20 134 -45 275
-51 l130 -6 -24 21 c-14 12 -28 17 -33 12 -5 -5 -29 -5 -56 0 -26 5 -76 12
-112 17 -36 5 -80 13 -97 19 -22 7 -35 7 -39 0z"/>
<path d="M596 334 c-4 -10 1 -18 13 -21 11 -3 21 -11 23 -19 2 -8 8 -10 16 -5
10 6 10 14 3 34 -12 30 -45 37 -55 11z"/>
<path d="M5183 330 c-3 -11 -14 -20 -24 -20 -13 0 -19 -7 -19 -21 0 -18 3 -19
15 -9 8 6 20 8 26 4 8 -5 10 -3 4 7 -6 11 -5 12 6 2 21 -20 29 -15 29 16 0 35
-29 52 -37 21z"/>
<path d="M514 315 c11 -8 25 -15 32 -15 11 0 27 -40 20 -48 -2 -2 -17 3 -33
11 -45 23 -93 31 -93 15 0 -20 -50 -70 -65 -64 -23 8 -38 -19 -25 -44 6 -12
10 -23 8 -25 -2 -2 -22 0 -46 5 -74 13 -65 -28 10 -48 26 -7 40 -7 44 0 4 6
10 5 15 -3 14 -22 11 -26 -23 -40 l-32 -13 31 -13 c17 -7 34 -17 38 -23 8 -13
65 -13 65 -1 0 5 10 11 23 13 20 3 19 5 -13 22 -34 19 -34 19 -12 29 32 15 22
31 -21 35 -39 3 -45 15 -23 44 9 13 16 14 24 6 6 -6 18 -8 26 -5 19 7 21 37 4
37 -26 1 27 30 53 30 21 0 27 -5 26 -19 0 -11 -4 -18 -8 -15 -4 2 -10 0 -14
-5 -3 -6 4 -15 16 -21 12 -7 19 -8 15 -2 -3 6 8 15 24 21 17 5 30 17 30 25 0
9 7 16 15 16 8 0 15 8 15 19 0 20 -39 75 -47 67 -3 -3 -18 1 -34 9 -15 8 -36
15 -46 15 -17 -1 -17 -2 1 -15z"/>
<path d="M4974 298 c-4 -7 2 -18 14 -26 12 -8 22 -20 22 -26 0 -7 16 -19 35
-26 23 -9 34 -19 30 -28 -2 -7 0 -10 5 -7 6 3 10 2 10 -4 0 -5 -4 -13 -10 -16
-10 -6 -9 -40 2 -51 4 -3 11 4 18 15 6 12 19 21 29 21 22 0 45 25 36 40 -3 6
-22 17 -41 25 -31 13 -35 18 -32 47 2 27 -1 33 -22 39 -40 11 -88 10 -96 -3z"/>
<path d="M4844 275 c11 -8 22 -12 25 -9 6 6 -19 24 -34 24 -5 -1 -1 -7 9 -15z"/>
<path d="M660 270 c0 -5 9 -10 20 -10 11 0 20 5 20 10 0 6 -9 10 -20 10 -11 0
-20 -4 -20 -10z"/>
<path d="M4880 271 c0 -5 5 -13 10 -16 6 -3 10 -2 10 4 0 5 -4 13 -10 16 -5 3
-10 2 -10 -4z"/>
<path d="M4915 250 c3 -5 13 -10 21 -10 8 0 14 5 14 10 0 6 -9 10 -21 10 -11
0 -17 -4 -14 -10z"/>
<path d="M6 235 c4 -8 10 -12 15 -9 11 6 2 24 -11 24 -5 0 -7 -7 -4 -15z"/>
<path d="M51 229 c-11 -12 -17 -27 -14 -35 6 -15 23 -19 23 -5 0 5 18 11 41
15 32 5 40 10 35 22 -3 9 -6 18 -6 20 0 14 -62 1 -79 -17z"/>
<path d="M238 242 c-24 -3 -26 -7 -23 -34 4 -31 22 -51 37 -41 5 2 6 13 3 24
-4 13 -2 19 9 19 9 0 16 3 16 8 -1 17 -17 27 -42 24z"/>
<path d="M0 155 c0 -15 6 -25 14 -25 19 0 27 37 9 44 -22 9 -23 8 -23 -19z"/>
<path d="M611 152 c-23 -2 -35 -9 -38 -23 -3 -11 -14 -19 -27 -19 -20 0 -19
-1 4 -13 20 -10 26 -21 28 -55 l3 -42 132 0 c104 1 128 3 112 12 -11 6 -23 16
-26 21 -4 5 -15 5 -27 -2 -11 -6 -25 -11 -31 -11 -15 0 -44 59 -38 79 6 25
-50 57 -92 53z"/>
<path d="M870 116 c0 -9 5 -16 10 -16 6 0 10 4 10 9 0 6 -4 13 -10 16 -5 3
-10 -1 -10 -9z"/>
<path d="M1154 104 c-21 -6 -31 -12 -21 -13 9 -1 17 -6 17 -12 0 -7 -12 -9
-35 -5 -19 3 -51 9 -70 12 -30 5 -34 4 -29 -11 6 -15 2 -16 -34 -11 -27 3 -46
1 -54 -8 -7 -7 -18 -11 -25 -9 -6 2 -10 -4 -9 -14 2 -10 -2 -21 -8 -25 -6 -5
-2 -8 11 -8 13 0 22 5 20 13 -3 17 122 21 232 8 102 -13 113 -7 99 48 -12 46
-34 54 -94 35z"/>
<path d="M5150 83 c0 -9 6 -12 19 -8 10 3 28 -2 42 -13 22 -18 22 -20 6 -36
-22 -23 -21 -26 6 -26 19 0 22 6 25 39 3 43 -7 51 -65 56 -24 2 -33 -1 -33
-12z"/>
<path d="M790 66 c0 -20 12 -27 27 -15 9 9 17 8 28 -1 16 -13 35 -6 35 15 0 9
-14 13 -45 13 -29 0 -45 -4 -45 -12z"/>
</g>
</svg>
